HIERARCHY
ROOT Root
{
  OFFSET 0.0 0.0 0.0
  CHANNELS 6 Xposition Yposition Zposition Zrotation Yrotation Xrotation
  JOINT Hips
  {
    OFFSET 0.0 100.0 0.0
    CHANNELS 6 Xposition Yposition Zposition Zrotation Yrotation Xrotation
    JOINT Spine1
    {
      OFFSET -0.013727 5.003763 -0.053727
      CHANNELS 3 Zrotation Yrotation Xrotation
      JOINT Spine2
      {
        OFFSET -0.0 7.125301 -0.029825
        CHANNELS 3 Zrotation Yrotation Xrotation
        JOINT Chest
        {
          OFFSET -1e-06 7.550063 -0.815971
          CHANNELS 3 Zrotation Yrotation Xrotation
          JOINT Neck1
          {
            OFFSET -0.181677 26.311295 -0.553348
            CHANNELS 3 Zrotation Yrotation Xrotation
            JOINT Neck2
            {
              OFFSET -3e-06 7.709397 2.302585
              CHANNELS 3 Zrotation Yrotation Xrotation
              JOINT Head
              {
                OFFSET -5e-06 6.128916 1.953709
                CHANNELS 3 Zrotation Yrotation Xrotation
                JOINT HeadEnd
                {
                  OFFSET 0.003598 16.065403 -1.835379
                  CHANNELS 3 Zrotation Yrotation Xrotation
                }
                JOINT Jaw
                {
                  OFFSET 0.002637 0.475592 3.094941
                  CHANNELS 3 Zrotation Yrotation Xrotation
                }
                JOINT LeftEye
                {
                  OFFSET 3.206381 5.380205 7.586883
                  CHANNELS 3 Zrotation Yrotation Xrotation
                }
                JOINT RightEye
                {
                  OFFSET -3.22244 5.361869 7.558234
                  CHANNELS 3 Zrotation Yrotation Xrotation
                }
              }
            }
          }
          JOINT LeftShoulder
          {
            OFFSET 1.621652 23.237164 5.113413
            CHANNELS 3 Zrotation Yrotation Xrotation
            JOINT LeftArm
            {
              OFFSET 14.919846 2e-06 -5.502326
              CHANNELS 3 Zrotation Yrotation Xrotation
              JOINT LeftForeArm
              {
                OFFSET 28.739307 0.0 -0.002588
                CHANNELS 3 Zrotation Yrotation Xrotation
                JOINT LeftHand
                {
                  OFFSET 27.093981 -1e-06 0.002609
                  CHANNELS 3 Zrotation Yrotation Xrotation
                  JOINT LeftHandThumb1
                  {
                    OFFSET 2.276482 -1.392045 3.191413
                    CHANNELS 3 Zrotation Yrotation Xrotation
                    JOINT LeftHandThumb2
                    {
                      OFFSET 4.012836 -1.828127 1.641654
                      CHANNELS 3 Zrotation Yrotation Xrotation
                      JOINT LeftHandThumb3
                      {
                        OFFSET 2.798515 0.0 -3e-06
                        CHANNELS 3 Zrotation Yrotation Xrotation
                        JOINT LeftHandThumbEnd
                        {
                          OFFSET 3.180793 -4e-06 4e-06
                          CHANNELS 3 Zrotation Yrotation Xrotation
                        }
                      }
                    }
                  }
                  JOINT LeftHandIndex1
                  {
                    OFFSET 3.247555 -0.531998 2.296169
                    CHANNELS 3 Zrotation Yrotation Xrotation
                    JOINT LeftHandIndex2
                    {
                      OFFSET 6.364578 0.01206 0.1786
                      CHANNELS 3 Zrotation Yrotation Xrotation
                      JOINT LeftHandIndex3
                      {
                        OFFSET 3.662364 0.0 0.0
                        CHANNELS 3 Zrotation Yrotation Xrotation
                        JOINT LeftHandIndex4
                        {
                          OFFSET 2.329242 4e-06 4e-06
                          CHANNELS 3 Zrotation Yrotation Xrotation
                          JOINT LeftHandIndexEnd
                          {
                            OFFSET 2.759615 -0.180537 -0.113024
                            CHANNELS 3 Zrotation Yrotation Xrotation
                          }
                        }
                      }
                    }
                  }
                  JOINT LeftHandMiddle1
                  {
                    OFFSET 3.163495 0.240981 1.000332
                    CHANNELS 3 Zrotation Yrotation Xrotation
                    JOINT LeftHandMiddle2
                    {
                      OFFSET 6.19078 -0.259278 -1.002548
                      CHANNELS 3 Zrotation Yrotation Xrotation
                      JOINT LeftHandMiddle3
                      {
                        OFFSET 4.35652 -4e-06 -1e-06
                        CHANNELS 3 Zrotation Yrotation Xrotation
                        JOINT LeftHandMiddle4
                        {
                          OFFSET 2.996877 -8e-06 0.0
                          CHANNELS 3 Zrotation Yrotation Xrotation
                          JOINT LeftHandMiddleEnd
                          {
                            OFFSET 2.304287 -0.294569 -0.031741
                            CHANNELS 3 Zrotation Yrotation Xrotation
                          }
                        }
                      }
                    }
                  }
                  JOINT LeftHandRing1
                  {
                    OFFSET 2.882643 -0.053652 -0.322543
                    CHANNELS 3 Zrotation Yrotation Xrotation
                    JOINT LeftHandRing2
                    {
                      OFFSET 5.854541 -0.486202 -1.373841
                      CHANNELS 3 Zrotation Yrotation Xrotation
                      JOINT LeftHandRing3
                      {
                        OFFSET 4.350578 0.0 3e-06
                        CHANNELS 3 Zrotation Yrotation Xrotation
                        JOINT LeftHandRing4
                        {
                          OFFSET 2.651321 7e-06 2e-06
                          CHANNELS 3 Zrotation Yrotation Xrotation
                          JOINT LeftHandRingEnd
                          {
                            OFFSET 1.936105 0.077687 -7.1e-05
                            CHANNELS 3 Zrotation Yrotation Xrotation
                          }
                        }
                      }
                    }
                  }
                  JOINT LeftHandPinky1
                  {
                    OFFSET 2.8655 -0.310005 -1.600378
                    CHANNELS 3 Zrotation Yrotation Xrotation
                    JOINT LeftHandPinky2
                    {
                      OFFSET 5.087849 -1.331141 -1.77123
                      CHANNELS 3 Zrotation Yrotation Xrotation
                      JOINT LeftHandPinky3
                      {
                        OFFSET 3.070974 4e-06 0.0
                        CHANNELS 3 Zrotation Yrotation Xrotation
                        JOINT LeftHandPinky4
                        {
                          OFFSET 1.549672 0.0 1e-06
                          CHANNELS 3 Zrotation Yrotation Xrotation
                          JOINT LeftHandPinkyEnd
                          {
                            OFFSET 1.944893 -0.157802 0.057219
                            CHANNELS 3 Zrotation Yrotation Xrotation
                          }
                        }
                      }
                    }
                  }
                }
              }
            }
          }
          JOINT RightShoulder
          {
            OFFSET -1.380118 23.180309 5.214158
            CHANNELS 3 Zrotation Yrotation Xrotation
            JOINT RightArm
            {
              OFFSET -15.037196 1.2e-05 -5.545604
              CHANNELS 3 Zrotation Yrotation Xrotation
              JOINT RightForeArm
              {
                OFFSET -28.736639 2e-06 -0.002597
                CHANNELS 3 Zrotation Yrotation Xrotation
                JOINT RightHand
                {
                  OFFSET -27.133619 -0.0 0.002613
                  CHANNELS 3 Zrotation Yrotation Xrotation
                  JOINT RightHandThumb1
                  {
                    OFFSET -2.274032 -1.383988 3.163127
                    CHANNELS 3 Zrotation Yrotation Xrotation
                    JOINT RightHandThumb2
                    {
                      OFFSET -4.011429 -1.827466 1.640914
                      CHANNELS 3 Zrotation Yrotation Xrotation
                      JOINT RightHandThumb3
                      {
                        OFFSET -2.794935 -4e-06 -3e-06
                        CHANNELS 3 Zrotation Yrotation Xrotation
                        JOINT RightHandThumbEnd
                        {
                          OFFSET -3.183852 4e-06 1e-06
                          CHANNELS 3 Zrotation Yrotation Xrotation
                        }
                      }
                    }
                  }
                  JOINT RightHandIndex1
                  {
                    OFFSET -3.253266 -0.520057 2.282866
                    CHANNELS 3 Zrotation Yrotation Xrotation
                    JOINT RightHandIndex2
                    {
                      OFFSET -6.341917 0.012471 0.178266
                      CHANNELS 3 Zrotation Yrotation Xrotation
                      JOINT RightHandIndex3
                      {
                        OFFSET -3.654871 -8e-06 -0.0
                        CHANNELS 3 Zrotation Yrotation Xrotation
                        JOINT RightHandIndex4
                        {
                          OFFSET -2.327586 0.0 1e-06
                          CHANNELS 3 Zrotation Yrotation Xrotation
                          JOINT RightHandIndexEnd
                          {
                            OFFSET -2.76179 -0.180656 -0.113078
                            CHANNELS 3 Zrotation Yrotation Xrotation
                          }
                        }
                      }
                    }
                  }
                  JOINT RightHandMiddle1
                  {
                    OFFSET -3.168106 0.246593 1.00103
                    CHANNELS 3 Zrotation Yrotation Xrotation
                    JOINT RightHandMiddle2
                    {
                      OFFSET -6.180828 -0.258836 -1.000895
                      CHANNELS 3 Zrotation Yrotation Xrotation
                      JOINT RightHandMiddle3
                      {
                        OFFSET -4.348901 0.0 -0.0
                        CHANNELS 3 Zrotation Yrotation Xrotation
                        JOINT RightHandMiddle4
                        {
                          OFFSET -3.00024 -4e-06 -2e-06
                          CHANNELS 3 Zrotation Yrotation Xrotation
                          JOINT RightHandMiddleEnd
                          {
                            OFFSET -2.30252 -0.29437 -0.031706
                            CHANNELS 3 Zrotation Yrotation Xrotation
                          }
                        }
                      }
                    }
                  }
                  JOINT RightHandRing1
                  {
                    OFFSET -2.88569 -0.067952 -0.308858
                    CHANNELS 3 Zrotation Yrotation Xrotation
                    JOINT RightHandRing2
                    {
                      OFFSET -5.854198 -0.48613 -1.373731
                      CHANNELS 3 Zrotation Yrotation Xrotation
                      JOINT RightHandRing3
                      {
                        OFFSET -4.33881 -4e-06 -0.0
                        CHANNELS 3 Zrotation Yrotation Xrotation
                        JOINT RightHandRing4
                        {
                          OFFSET -2.654903 -4e-06 4e-06
                          CHANNELS 3 Zrotation Yrotation Xrotation
                          JOINT RightHandRingEnd
                          {
                            OFFSET -1.933568 0.077527 -5.2e-05
                            CHANNELS 3 Zrotation Yrotation Xrotation
                          }
                        }
                      }
                    }
                  }
                  JOINT RightHandPinky1
                  {
                    OFFSET -2.866425 -0.342796 -1.584145
                    CHANNELS 3 Zrotation Yrotation Xrotation
                    JOINT RightHandPinky2
                    {
                      OFFSET -5.091371 -1.332055 -1.772385
                      CHANNELS 3 Zrotation Yrotation Xrotation
                      JOINT RightHandPinky3
                      {
                        OFFSET -3.062664 -4e-06 1e-06
                        CHANNELS 3 Zrotation Yrotation Xrotation
                        JOINT RightHandPinky4
                        {
                          OFFSET -1.546529 4e-06 -2e-06
                          CHANNELS 3 Zrotation Yrotation Xrotation
                          JOINT RightHandPinkyEnd
                          {
                            OFFSET -1.945119 -0.157718 0.057211
                            CHANNELS 3 Zrotation Yrotation Xrotation
                          }
                        }
                      }
                    }
                  }
                }
              }
            }
          }
        }
      }
    }
    JOINT LeftLeg
    {
      OFFSET 10.043214 -8.434526 2.595655
      CHANNELS 3 Zrotation Yrotation Xrotation
      JOINT LeftShin
      {
        OFFSET -1e-06 -43.221752 -0.802913
        CHANNELS 3 Zrotation Yrotation Xrotation
        JOINT LeftFoot
        {
          OFFSET 1e-06 -42.155094 -3.481523
          CHANNELS 3 Zrotation Yrotation Xrotation
          JOINT LeftToeBase
          {
            OFFSET 0.0 -5.059472 13.231529
            CHANNELS 3 Zrotation Yrotation Xrotation
            JOINT LeftToeEnd
            {
              OFFSET -0.009607 -1.647619 6.513017
              CHANNELS 3 Zrotation Yrotation Xrotation
            }
          }
        }
      }
    }
    JOINT RightLeg
    {
      OFFSET -10.047278 -8.29526 2.620317
      CHANNELS 3 Zrotation Yrotation Xrotation
      JOINT RightShin
      {
        OFFSET 1e-06 -43.362206 -0.805556
        CHANNELS 3 Zrotation Yrotation Xrotation
        JOINT RightFoot
        {
          OFFSET 2e-06 -42.117393 -3.478398
          CHANNELS 3 Zrotation Yrotation Xrotation
          JOINT RightToeBase
          {
            OFFSET -0.0 -5.079609 13.284196
            CHANNELS 3 Zrotation Yrotation Xrotation
            JOINT RightToeEnd
            {
              OFFSET 0.009532 -1.634378 6.460591
              CHANNELS 3 Zrotation Yrotation Xrotation
            }
          }
        }
      }
    }
  }
}
MOTION
Frames: 4
Frame Time: 0.03333333333333333
0.447004 0.0 -1.037588 0.0 15.739636 0.0 0.0 99.567451 0.0 -0.318586 0.002358 0.423694 2.992278 0.77102 2.548362 0.27806 4.181271 -4.038177 -1.480468 2.318887 10.591966 0.044305 3.171256 15.521926 -1.66563 -6.861341 -3.679756 1.687706 -8.928223 -9.906193 0.000174 0.006303 -0.003231 0.00307 -0.005361 0.048337 0.693812 -3.739346 -10.670596 -0.685587 3.724504 -10.645361 -24.636557 -0.347594 9.814949 -50.44083 4.940101 9.523975 -0.383877 -38.960678 0.429219 4.957314 2.461035 4.328998 -5.883737 9.852734 0.735522 -10.950851 -0.324458 7.159786 -0.004374 8.789192 -0.001435 -15.871651 18.222546 6.159462 -1.841753 2.494566 -2.514274 -10.17005 4.691587 4.622756 -20.993902 0.006401 0.001384 -21.247456 2.474462 -3.609611 -0.001198 0.000349 0.00032 -1.364339 2.248205 -0.740186 -21.323858 0.579314 3.009418 -13.809611 0.007004 -0.001241 -23.864386 -0.238504 -0.845149 -60.334301 2.577754 -0.700923 -0.29631 1.70318 0.838519 -14.21599 0.067618 1.300995 -34.216904 -0.280951 0.966002 -20.021193 0.969249 1.208121 5.5e-05 0.001058 0.001354 -3.448932 0.820871 0.5061 -15.922264 -3.205218 2.996107 -6.33708 -0.001398 0.001909 -18.119276 3.660131 -4.903637 -0.007448 -0.000193 0.000204 10.621055 26.331158 10.393087 18.260906 29.786974 -28.279169 -1.556835 52.175652 -0.834348 -20.000977 -0.087734 -44.911369 2.216177 -5.198273 -3.184331 14.263135 -0.834849 6.962699 0.01655 -12.713157 -0.011371 15.184641 -16.463289 2.834561 1.659801 -1.946331 -2.874244 4.72609 -4.181288 4.991273 11.003093 -0.001527 -0.00187 12.096918 -3.738436 -2.871015 0.001153 0.001751 -0.000972 1.280899 -1.93242 -1.49577 14.819414 0.567545 3.865433 14.236614 -1.343296 -6.663901 19.628391 0.148433 -0.652232 49.4575 -1.114302 -5.490862 0.353628 -1.526725 -0.031978 20.217468 3.712804 2.33241 18.800549 -0.005647 -0.008912 10.758718 -0.469124 1.409655 -0.011571 8.1e-05 0.004669 3.275949 0.289938 -0.59297 21.499266 11.855386 2.295975 8.176246 0.00282 -0.006047 18.411589 -3.783595 -4.962829 0.002721 0.00112 -0.003369 6.732562 -2.232585 -8.919655 -0.041436 -0.47331 13.580782 -6.703232 -11.567683 -5.289041 1.624464 -1.935588 -0.084903 -0.0 4.7e-05 0.006499 -6.762502 -19.429874 1.16182 -0.043704 0.204871 6.882984 9.138822 -10.296584 -6.672548 -1.389901 0.982235 -0.059546 0.001417 -0.000436 0.001882 
0.425231 0.0 -0.932585 0.0 14.836756 0.0 0.0 99.575996 0.0 -0.354212 0.001705 0.307052 3.016498 0.778536 2.520239 0.279579 4.127429 -4.028636 -1.44529 2.27196 10.509891 0.274145 3.033845 15.200018 -1.707128 -6.836276 -3.687545 1.524199 -8.85882 -9.870414 0.000597 0.0001 -0.000812 0.006033 -0.011626 0.04152 0.69246 -3.74206 -10.666951 -0.681478 3.715713 -10.639627 -24.57015 -0.548514 9.826759 -50.390373 5.053195 9.798129 -0.411693 -38.590229 0.469009 4.765599 2.397264 4.544837 -5.882413 9.860004 0.749482 -10.979403 -0.363747 7.15338 -0.000789 8.773891 -0.005763 -15.892308 18.163519 6.15493 -1.8319 2.495427 -2.5132 -10.154613 4.677038 4.628082 -20.943243 0.001757 0.010701 -21.1744 2.457402 -3.5814 -0.009384 0.001554 -0.001035 -1.349491 2.239569 -0.747831 -21.317713 0.580076 3.020593 -13.809698 0.001334 0.007109 -23.862585 -0.242084 -0.826171 -60.376259 2.59695 -0.67788 -0.267956 1.676204 0.835338 -14.216443 0.091593 1.300899 -34.144764 -0.278516 0.985076 -20.002253 0.968683 1.216904 -0.007368 -0.000881 0.000424 -3.404104 0.774257 0.509661 -15.93362 -3.158785 2.995381 -6.332087 -0.002533 0.005979 -18.125191 3.648212 -4.890072 0.011708 0.001368 -0.00026 10.568742 26.251448 10.165382 19.069105 30.277079 -27.274015 -1.609129 53.757347 -0.870166 -20.69964 -0.154718 -43.52507 2.236529 -5.249468 -3.189801 14.269919 -0.815184 6.951457 -0.01033 -12.679308 -0.004111 15.108188 -16.338964 2.813774 1.666637 -1.967535 -2.880461 4.731412 -4.159484 4.994595 11.055044 0.000645 -0.003211 12.120218 -3.715984 -2.862059 -2e-05 0.000569 0.000987 1.287221 -1.928645 -1.49581 14.821493 0.559689 3.864748 14.264003 -1.343735 -6.666991 19.630058 0.146759 -0.649352 49.415127 -1.12537 -5.504166 0.358302 -1.509723 -0.037944 20.236032 3.672226 2.320255 18.80471 0.002895 -0.006931 10.780081 -0.484239 1.384268 -0.006683 0.002991 -0.000918 3.294736 0.304598 -0.590246 21.485392 11.818992 2.276702 8.173606 -0.001521 -0.00325 18.41433 -3.786738 -4.946564 0.00263 -0.002781 0.004057 6.810361 -1.772504 -8.418864 -0.03914 -0.463904 13.395093 -6.653513 -11.18499 -5.547181 1.627378 -1.949126 -0.043962 0.000115 -0.00017 0.002166 -6.729749 -19.083065 1.231535 -0.049082 0.21332 6.730734 9.119398 -9.843129 -6.39322 -1.396978 0.975526 -0.016221 0.000347 -0.002339 0.005093 
0.408648 0.0 -0.8261 0.0 13.92098 0.0 0.0 99.567101 0.0 -0.389097 0.000985 0.19086 3.016651 0.779933 2.463621 0.279126 4.013476 -4.021216 -1.402534 2.25142 10.444561 0.516937 2.869784 14.904953 -1.736286 -6.773555 -3.699159 1.314895 -8.764721 -9.73829 -0.000488 0.002068 -0.003619 0.008145 -0.001996 0.05109 0.695702 -3.735149 -10.657041 -0.683756 3.725009 -10.63178 -24.478388 -0.7744 9.833772 -50.30513 5.14168 10.218896 -0.48065 -38.300373 0.536899 4.654573 2.343935 4.809755 -5.886557 9.881459 0.667014 -10.942934 -0.385712 7.125349 0.002909 8.763606 0.000866 -15.963894 18.136663 6.115112 -1.845886 2.501344 -2.506066 -10.150131 4.67055 4.632555 -20.945862 -0.001301 0.003393 -21.173809 2.447568 -3.581227 -0.011428 -0.002902 0.000623 -1.357475 2.232232 -0.741693 -21.319557 0.588128 3.016661 -13.810325 0.001306 0.003258 -23.874453 -0.25103 -0.839609 -60.399426 2.563448 -0.643134 -0.285152 1.669187 0.838755 -14.203407 0.103538 1.306754 -34.14159 -0.291358 0.969044 -19.989925 0.966953 1.209113 0.001846 0.001003 0.003725 -3.428568 0.770013 0.505516 -15.933384 -3.139353 3.000283 -6.331593 -0.000241 0.001402 -18.070677 3.641564 -4.883072 -0.00751 0.000586 -0.000822 10.828026 26.088497 10.159566 20.047424 30.550354 -26.044724 -1.876797 55.985443 -1.09051 -21.546492 -0.166909 -41.696693 2.216516 -5.224197 -3.191073 14.271102 -0.805085 6.925197 0.004292 -12.678343 -0.002093 14.955994 -16.270239 2.781754 1.668723 -1.959686 -2.880127 4.719471 -4.165015 4.992417 11.009671 0.002274 -0.007205 12.086454 -3.727962 -2.87587 0.009331 0.002723 0.000939 1.28638 -1.928584 -1.497736 14.812563 0.567986 3.864066 14.200961 -1.344261 -6.657683 19.595686 0.154435 -0.643754 49.145069 -1.093737 -5.456125 0.355061 -1.517003 -0.039678 20.201836 3.680579 2.32103 18.777971 0.011237 -0.002168 10.728153 -0.470135 1.402019 0.005821 -0.000742 0.001638 3.260351 0.299686 -0.591842 21.481607 11.832501 2.282285 8.147639 0.002769 0.002243 18.354414 -3.792586 -4.937636 -0.007964 -0.003931 0.006268 6.862447 -1.295901 -7.970709 -0.024834 -0.468979 13.317817 -6.59153 -10.718254 -5.737219 1.628221 -1.951993 0.005326 0.000177 -1.1e-05 0.001967 -6.715604 -18.695311 1.119855 -0.0398 0.220078 6.93761 9.204701 -9.369905 -6.461868 -1.398286 0.996011 -0.015813 7.7e-05 0.002122 -0.002312 
0.388442 0.0 -0.700184 0.0 13.025385 0.0 0.0 99.571678 0.0 -0.416773 0.000226 0.079453 2.981152 0.744466 2.374018 0.27597 3.888912 -4.009361 -1.356726 2.176913 10.344724 0.717936 2.707681 14.580168 -1.759527 -6.710498 -3.709128 1.080295 -8.602893 -9.494447 2e-05 -0.002243 0.00022 0.0078 0.006028 0.053028 0.69437 -3.726943 -10.654955 -0.684332 3.733255 -10.631089 -24.373148 -1.041227 9.792698 -50.163975 5.242665 10.82541 -0.613102 -38.027973 0.60312 4.513019 2.262877 5.237059 -5.883494 9.873863 0.644888 -10.92371 -0.37061 7.133682 0.001136 8.769029 0.002339 -16.058218 18.131031 6.099419 -1.854616 2.49763 -2.509883 -10.168127 4.674594 4.624423 -20.978874 -0.004878 -0.001765 -21.219793 2.443018 -3.580969 0.001253 -0.003372 -0.000312 -1.376667 2.234836 -0.738173 -21.33843 0.588551 3.001107 -13.834005 -0.0027 0.001425 -23.893419 -0.260257 -0.839463 -60.42717 2.528979 -0.616473 -0.308725 1.68307 0.839048 -14.224402 0.089671 1.298583 -34.222206 -0.29571 0.951913 -20.060848 0.953615 1.214645 0.000463 0.001045 0.002146 -3.459747 0.779615 0.499268 -15.930445 -3.152544 2.995478 -6.334994 0.000508 -0.000437 -18.110897 3.634369 -4.896561 0.011559 0.001132 0.003054 11.378397 25.838472 10.447088 21.337641 30.488035 -24.482927 -2.123644 59.011852 -1.326882 -22.699272 -0.141655 -39.324627 2.237836 -5.281201 -3.158959 14.29989 -0.8513 6.96586 -0.01875 -12.6913 0.013471 14.885508 -16.229342 2.767995 1.660121 -1.950866 -2.886055 4.725473 -4.166232 5.003537 11.041711 -0.001487 -0.002676 12.085229 -3.738176 -2.856436 4.6e-05 0.001546 0.001937 1.293181 -1.914446 -1.491307 14.796481 0.559565 3.855464 14.239764 -1.336385 -6.654635 19.635698 0.139797 -0.643403 49.02095 -1.090553 -5.488465 0.3565 -1.501332 -0.026736 20.218695 3.682511 2.310546 18.775602 -0.008067 -0.000694 10.727174 -0.477314 1.412874 0.006531 -0.001039 -0.002066 3.268654 0.321183 -0.568911 21.494747 11.835722 2.246448 8.170554 0.003795 0.001417 18.409622 -3.802443 -4.944263 -0.001218 -0.00305 0.000276 6.883526 -0.807632 -7.445905 -0.014041 -0.479358 13.069839 -6.538564 -10.223898 -5.892582 1.628602 -1.937962 0.045661 6e-05 3e-06 0.002357 -6.723348 -18.305676 1.131114 -0.035809 0.232483 6.891158 9.235034 -8.904803 -6.338713 -1.404642 1.0087 -0.008767 0.001098 -0.003798 0.002601 
